<?xml version="1.0" encoding="UTF-8" standalone="no"?>
<!DOCTYPE svg PUBLIC "-//W3C//DTD SVG 1.1//EN" "http://www.w3.org/Graphics/SVG/1.1/DTD/svg11.dtd">
<svg width="100%" height="100%" viewBox="0 0 174 174" version="1.1" xmlns="http://www.w3.org/2000/svg" xmlns:xlink="http://www.w3.org/1999/xlink" xml:space="preserve" xmlns:serif="http://www.serif.com/" style="fill-rule:evenodd;clip-rule:evenodd;stroke-linejoin:round;stroke-miterlimit:2;">
    <g transform="matrix(1,0,0,1,-330.343,-2308.55)">
        <g transform="matrix(1,0,0,1,0,-39)">
            <g id="icons8-figma.svg" transform="matrix(3.61702,0,0,3.61702,417.152,2434.36)">
                <g transform="matrix(1,0,0,1,-24,-24)">
                    <path d="M26,17L18,17C14.134,17 11,13.866 11,10C11,6.134 14.134,3 18,3L26,3L26,17Z" style="fill:rgb(230,74,25);fill-rule:nonzero;"/>
                    <path d="M25,31L18,31C14.134,31 11,27.866 11,24C11,20.134 14.134,17 18,17L25,17L25,31Z" style="fill:rgb(124,77,255);fill-rule:nonzero;"/>
                    <path d="M18,45C14.134,45 11,41.866 11,38C11,34.134 14.134,31 18,31L25,31L25,38C25,41.866 21.866,45 18,45Z" style="fill:rgb(102,187,106);fill-rule:nonzero;"/>
                    <path d="M32,17L25,17L25,3L32,3C35.866,3 39,6.134 39,10C39,13.866 35.866,17 32,17Z" style="fill:rgb(255,112,67);fill-rule:nonzero;"/>
                    <circle cx="32" cy="24" r="7" style="fill:rgb(41,182,246);"/>
                </g>
            </g>
        </g>
    </g>
</svg>
