<?xml version="1.0" encoding="UTF-8" standalone="no"?>
<!DOCTYPE svg PUBLIC "-//W3C//DTD SVG 1.1//EN" "http://www.w3.org/Graphics/SVG/1.1/DTD/svg11.dtd">
<svg width="100%" height="100%" viewBox="0 0 200 200" version="1.1" xmlns="http://www.w3.org/2000/svg" xmlns:xlink="http://www.w3.org/1999/xlink" xml:space="preserve" xmlns:serif="http://www.serif.com/" style="fill-rule:evenodd;clip-rule:evenodd;stroke-linejoin:round;stroke-miterlimit:2;">
    <g transform="matrix(1,0,0,1,-724.302,-2295.36)">
        <g transform="matrix(1,0,0,1,0,-39)">
            <g id="icons8-adobe-illustrator.svg" transform="matrix(4.16667,0,0,4.16667,824.302,2434.36)">
                <g transform="matrix(1,0,0,1,-24,-24)">
                    <path d="M6,10C6,7.791 7.791,6 10,6L38,6C40.209,6 42,7.791 42,10L42,38C42,40.209 40.209,42 38,42L10,42C7.791,42 6,40.209 6,38L6,10Z" style="fill:rgb(255,87,34);fill-rule:nonzero;"/>
                    <path d="M9,9L9,39L39,39L39,9L9,9ZM23.691,31L22.929,28.09L19.013,28.09L18.252,31L15.215,31L19.658,16.781L22.285,16.781L26.758,31L23.691,31ZM30.85,31L28.077,31L28.077,20.434L30.85,20.434L30.85,31ZM30.552,18.754C30.281,19.034 29.916,19.174 29.453,19.174C28.99,19.174 28.625,19.034 28.354,18.754C28.083,18.474 27.949,18.122 27.949,17.699C27.949,17.269 28.086,16.918 28.359,16.644C28.632,16.37 28.998,16.234 29.453,16.234C29.908,16.234 30.273,16.371 30.547,16.644C30.821,16.917 30.957,17.269 30.957,17.699C30.957,18.122 30.822,18.474 30.552,18.754Z" style="fill:rgb(28,8,2);fill-rule:nonzero;"/>
                    <path d="M19.639,25.697L22.295,25.697L20.967,20.629L19.639,25.697Z" style="fill:rgb(28,8,2);fill-rule:nonzero;"/>
                </g>
            </g>
        </g>
    </g>
</svg>
