<?xml version="1.0" encoding="UTF-8" standalone="no"?><!DOCTYPE svg PUBLIC "-//W3C//DTD SVG 1.1//EN" "http://www.w3.org/Graphics/SVG/1.1/DTD/svg11.dtd"><svg width="100%" height="100%" viewBox="0 0 563 144" version="1.1" xmlns="http://www.w3.org/2000/svg" xmlns:xlink="http://www.w3.org/1999/xlink" xml:space="preserve" xmlns:serif="http://www.serif.com/" style="fill-rule:evenodd;clip-rule:evenodd;stroke-linejoin:round;stroke-miterlimit:2;"><g><g><path d="M30.516,64.89l1.929,0c1.637,0 2.952,-0.292 3.946,-0.876c0.994,-0.585 1.725,-1.345 2.192,-2.28c0.468,-0.936 0.76,-1.988 0.877,-3.157c0.117,-1.169 0.176,-2.397 0.176,-3.683l-0,-33.498c-0,-3.975 0.526,-7.307 1.578,-9.996c1.052,-2.689 2.426,-4.882 4.122,-6.577c1.695,-1.695 3.624,-2.923 5.787,-3.683c2.163,-0.76 4.414,-1.14 6.752,-1.14l6.665,0l-0,14.557l-0.351,-0c-1.754,-0 -3.098,0.292 -4.034,0.876c-0.935,0.585 -1.637,1.345 -2.104,2.28c-0.468,0.936 -0.76,2.017 -0.877,3.245c-0.117,1.228 -0.176,2.426 -0.176,3.595l0,29.815c0,3.156 -0.497,5.816 -1.49,7.979c-0.994,2.163 -2.28,3.917 -3.859,5.262c-1.578,1.344 -3.39,2.309 -5.436,2.894c-2.047,0.584 -4.122,0.935 -6.226,1.052c2.104,0.117 4.179,0.497 6.226,1.14c2.046,0.643 3.858,1.637 5.436,2.981c1.579,1.345 2.865,3.069 3.859,5.174c0.993,2.105 1.49,4.735 1.49,7.892l0,29.815c0,2.572 0.351,4.881 1.053,6.927c0.701,2.046 2.747,3.069 6.138,3.069l0.351,0l-0,14.557l-6.665,-0c-2.338,-0 -4.589,-0.38 -6.752,-1.14c-2.163,-0.76 -4.092,-1.988 -5.787,-3.683c-1.696,-1.696 -3.07,-3.888 -4.122,-6.577c-1.052,-2.689 -1.578,-6.021 -1.578,-9.997l-0,-33.497c-0,-1.169 -0.059,-2.368 -0.176,-3.595c-0.117,-1.228 -0.409,-2.31 -0.877,-3.245c-0.467,-0.935 -1.198,-1.695 -2.192,-2.28c-0.994,-0.584 -2.309,-0.877 -3.946,-0.877l-1.929,0l0,-13.329Z" style="fill:url(#_Linear1);fill-rule:nonzero;"/><path d="M112.594,64.89l-0,13.329l-1.93,0c-1.636,0 -2.952,0.293 -3.946,0.877c-0.993,0.585 -1.724,1.345 -2.192,2.28c-0.467,0.935 -0.76,2.017 -0.877,3.245c-0.117,1.227 -0.175,2.426 -0.175,3.595l-0,33.497c-0,3.976 -0.526,7.308 -1.578,9.997c-1.053,2.689 -2.427,4.881 -4.122,6.577c-1.695,1.695 -3.654,2.923 -5.875,3.683c-2.222,0.76 -4.502,1.14 -6.84,1.14l-6.489,-0l0,-14.557l0.351,0c3.274,0 5.29,-1.023 6.05,-3.069c0.76,-2.046 1.14,-4.355 1.14,-6.927l0,-29.815c0,-3.157 0.468,-5.787 1.403,-7.892c0.936,-2.105 2.193,-3.829 3.771,-5.174c1.578,-1.344 3.361,-2.338 5.349,-2.981c1.988,-0.643 4.092,-1.023 6.314,-1.14c-2.222,-0.117 -4.326,-0.468 -6.314,-1.052c-1.988,-0.585 -3.771,-1.55 -5.349,-2.894c-1.578,-1.345 -2.835,-3.099 -3.771,-5.262c-0.935,-2.163 -1.403,-4.823 -1.403,-7.979l0,-29.815c0,-1.169 -0.058,-2.367 -0.175,-3.595c-0.117,-1.228 -0.409,-2.309 -0.877,-3.245c-0.468,-0.935 -1.198,-1.695 -2.192,-2.28c-0.994,-0.584 -2.309,-0.876 -3.946,-0.876l-0.351,-0l0,-14.557l6.489,0c2.338,0 4.618,0.38 6.84,1.14c2.221,0.76 4.18,1.988 5.875,3.683c1.695,1.695 3.069,3.888 4.122,6.577c1.052,2.689 1.578,6.021 1.578,9.996l-0,33.498c-0,1.286 0.058,2.514 0.175,3.683c0.117,1.169 0.41,2.221 0.877,3.157c0.468,0.935 1.199,1.695 2.192,2.28c0.994,0.584 2.31,0.876 3.946,0.876l1.93,0Z" style="fill:url(#_Linear2);fill-rule:nonzero;"/><path d="M78.219,30.516l0,1.929c0,1.637 0.293,2.952 0.877,3.946c0.585,0.994 1.345,1.725 2.28,2.192c0.935,0.468 1.988,0.76 3.157,0.877c1.169,0.117 2.397,0.176 3.683,0.176l33.497,-0c3.976,-0 7.308,0.526 9.997,1.578c2.689,1.052 4.881,2.426 6.577,4.122c1.695,1.695 2.923,3.624 3.683,5.787c0.76,2.163 1.14,4.414 1.14,6.752l-0,6.665l-14.557,-0l0,-0.351c0,-1.754 -0.292,-3.098 -0.877,-4.034c-0.584,-0.935 -1.344,-1.637 -2.28,-2.104c-0.935,-0.468 -2.016,-0.76 -3.244,-0.877c-1.228,-0.117 -2.426,-0.176 -3.595,-0.176l-29.815,0c-3.157,0 -5.817,-0.497 -7.98,-1.49c-2.163,-0.994 -3.917,-2.28 -5.261,-3.859c-1.345,-1.578 -2.309,-3.39 -2.894,-5.436c-0.584,-2.047 -0.935,-4.122 -1.052,-6.226c-0.117,2.104 -0.497,4.179 -1.14,6.226c-0.643,2.046 -1.637,3.858 -2.982,5.436c-1.344,1.579 -3.069,2.865 -5.173,3.859c-2.105,0.993 -4.736,1.49 -7.892,1.49l-29.815,0c-2.572,0 -4.881,0.351 -6.927,1.053c-2.046,0.701 -3.069,2.747 -3.069,6.138l-0,0.351l-14.557,-0l0,-6.665c0,-2.338 0.38,-4.589 1.14,-6.752c0.76,-2.163 1.988,-4.092 3.683,-5.787c1.695,-1.696 3.888,-3.07 6.577,-4.122c2.689,-1.052 6.021,-1.578 9.996,-1.578l33.498,-0c1.169,-0 2.367,-0.059 3.595,-0.176c1.228,-0.117 2.309,-0.409 3.245,-0.877c0.935,-0.467 1.695,-1.198 2.28,-2.192c0.584,-0.994 0.876,-2.309 0.876,-3.946l0,-1.929l13.329,0Z" style="fill:url(#_Linear3);fill-rule:nonzero;"/><path d="M78.219,112.594l-13.329,-0l0,-1.93c0,-1.636 -0.292,-2.952 -0.876,-3.946c-0.585,-0.993 -1.345,-1.724 -2.28,-2.192c-0.936,-0.467 -2.017,-0.76 -3.245,-0.877c-1.228,-0.117 -2.426,-0.175 -3.595,-0.175l-33.498,-0c-3.975,-0 -7.307,-0.526 -9.996,-1.578c-2.689,-1.053 -4.882,-2.427 -6.577,-4.122c-1.695,-1.695 -2.923,-3.654 -3.683,-5.875c-0.76,-2.222 -1.14,-4.502 -1.14,-6.84l0,-6.489l14.557,0l-0,0.351c-0,3.274 1.023,5.29 3.069,6.05c2.046,0.76 4.355,1.14 6.927,1.14l29.815,0c3.156,0 5.787,0.468 7.892,1.403c2.104,0.936 3.829,2.193 5.173,3.771c1.345,1.578 2.339,3.361 2.982,5.349c0.643,1.988 1.023,4.092 1.14,6.314c0.117,-2.222 0.468,-4.326 1.052,-6.314c0.585,-1.988 1.549,-3.771 2.894,-5.349c1.344,-1.578 3.098,-2.835 5.261,-3.771c2.163,-0.935 4.823,-1.403 7.98,-1.403l29.815,0c1.169,0 2.367,-0.058 3.595,-0.175c1.228,-0.117 2.309,-0.409 3.244,-0.877c0.936,-0.468 1.696,-1.198 2.28,-2.192c0.585,-0.994 0.877,-2.309 0.877,-3.946l0,-0.351l14.557,0l-0,6.489c-0,2.338 -0.38,4.618 -1.14,6.84c-0.76,2.221 -1.988,4.18 -3.683,5.875c-1.696,1.695 -3.888,3.069 -6.577,4.122c-2.689,1.052 -6.021,1.578 -9.997,1.578l-33.497,-0c-1.286,-0 -2.514,0.058 -3.683,0.175c-1.169,0.117 -2.222,0.41 -3.157,0.877c-0.935,0.468 -1.695,1.199 -2.28,2.192c-0.584,0.994 -0.877,2.31 -0.877,3.946l0,1.93Z" style="fill:url(#_Linear4);fill-rule:nonzero;"/></g><path d="M191.756,94.538c-3.786,-0 -7.321,-0.281 -10.604,-0.843c-3.283,-0.562 -6.108,-1.376 -8.475,-2.441l0,-12.157c2.603,1.124 5.487,2.041 8.652,2.751c3.165,0.71 6.168,1.065 9.007,1.065c3.55,0 6.197,-0.325 7.942,-0.976c1.745,-0.651 2.618,-2.07 2.618,-4.259c-0,-1.479 -0.429,-2.662 -1.287,-3.55c-0.858,-0.887 -2.248,-1.671 -4.171,-2.351c-1.922,-0.681 -4.54,-1.494 -7.853,-2.441c-3.904,-1.183 -7.01,-2.499 -9.317,-3.948c-2.307,-1.45 -3.964,-3.21 -4.969,-5.28c-1.006,-2.071 -1.509,-4.614 -1.509,-7.632c0,-5.442 1.952,-9.613 5.857,-12.511c3.904,-2.899 9.672,-4.348 17.303,-4.348c3.313,-0 6.537,0.251 9.673,0.754c3.135,0.503 5.679,1.079 7.631,1.73l0,12.246c-2.544,-1.006 -5.102,-1.745 -7.676,-2.219c-2.573,-0.473 -5.072,-0.71 -7.498,-0.71c-3.194,0 -5.783,0.296 -7.764,0.888c-1.982,0.591 -2.973,1.952 -2.973,4.082c-0,1.242 0.355,2.233 1.065,2.972c0.71,0.74 1.937,1.405 3.682,1.997c1.746,0.592 4.127,1.301 7.144,2.13c4.673,1.242 8.252,2.736 10.737,4.481c2.484,1.745 4.2,3.756 5.147,6.034c0.946,2.278 1.419,4.836 1.419,7.676c0,5.028 -1.952,9.095 -5.856,12.201c-3.905,3.106 -9.88,4.659 -17.925,4.659Z" style="fill:url(#_Linear5);fill-rule:nonzero;"/><path d="M244.998,94.538c-7.513,-0 -13.385,-1.834 -17.614,-5.502c-4.23,-3.668 -6.345,-9.14 -6.345,-16.416c-0,-7.395 2.204,-12.897 6.611,-16.505c4.407,-3.609 10.279,-5.413 17.614,-5.413c3.076,-0 5.753,0.222 8.031,0.665c2.277,0.444 4.481,1.169 6.611,2.174l-0,10.116c-3.313,-1.597 -7.188,-2.396 -11.625,-2.396c-4.141,0 -7.291,0.829 -9.45,2.485c-2.16,1.656 -3.239,4.614 -3.239,8.874c-0,3.963 1.005,6.847 3.017,8.652c2.011,1.804 5.206,2.706 9.583,2.706c4.319,-0 8.253,-0.887 11.802,-2.662l0,10.56c-2.129,0.946 -4.422,1.626 -6.877,2.04c-2.455,0.415 -5.161,0.622 -8.119,0.622Z" style="fill:url(#_Linear6);fill-rule:nonzero;"/><path d="M289.189,94.538c-8.105,-0 -14.08,-1.879 -17.925,-5.635c-3.845,-3.757 -5.768,-9.184 -5.768,-16.283c0,-7.04 1.937,-12.453 5.812,-16.239c3.875,-3.786 9.835,-5.679 17.881,-5.679c8.104,-0 14.094,1.893 17.969,5.679c3.875,3.786 5.812,9.199 5.812,16.239c0,7.099 -1.922,12.526 -5.768,16.283c-3.845,3.756 -9.849,5.635 -18.013,5.635Zm-0,-11.181c3.313,-0 5.679,-0.828 7.099,-2.485c1.419,-1.656 2.129,-4.407 2.129,-8.252c0,-3.846 -0.71,-6.596 -2.129,-8.253c-1.42,-1.656 -3.786,-2.484 -7.099,-2.484c-3.254,-0 -5.591,0.828 -7.01,2.484c-1.42,1.657 -2.13,4.407 -2.13,8.253c-0,3.845 0.71,6.596 2.13,8.252c1.419,1.657 3.756,2.485 7.01,2.485Z" style="fill:url(#_Linear7);fill-rule:nonzero;"/><path d="M337.55,94.538c-5.206,-0 -9.036,-1.331 -11.491,-3.994c-2.455,-2.662 -3.683,-6.329 -3.683,-11.003l0,-17.126l-5.679,-0l0,-10.826l5.679,0l0,-8.785l14.287,-3.816l-0,12.601l10.205,0l-0.622,10.826l-9.583,-0l-0,16.15c-0,2.011 0.503,3.416 1.508,4.215c1.006,0.799 2.515,1.198 4.526,1.198c1.716,-0 3.461,-0.296 5.235,-0.887l0,9.672c-2.78,1.183 -6.241,1.775 -10.382,1.775Z" style="fill:url(#_Linear8);fill-rule:nonzero;"/><path d="M370.738,94.538c-5.206,-0 -9.037,-1.331 -11.492,-3.994c-2.455,-2.662 -3.682,-6.329 -3.682,-11.003l-0,-17.126l-5.679,-0l-0,-10.826l5.679,0l-0,-8.785l14.286,-3.816l0,12.601l10.205,0l-0.621,10.826l-9.584,-0l0,16.15c0,2.011 0.503,3.416 1.509,4.215c1.006,0.799 2.514,1.198 4.525,1.198c1.716,-0 3.461,-0.296 5.236,-0.887l-0,9.672c-2.781,1.183 -6.241,1.775 -10.382,1.775Z" style="fill:url(#_Linear9);fill-rule:nonzero;"/><path d="M404.28,94.538c-4.082,-0 -7.572,-0.651 -10.471,-1.953c-2.898,-1.301 -5.117,-3.446 -6.655,-6.433c-1.538,-2.987 -2.307,-6.995 -2.307,-12.024c-0,-5.087 0.887,-9.362 2.662,-12.822c1.775,-3.461 4.215,-6.093 7.321,-7.898c3.106,-1.804 6.67,-2.706 10.692,-2.706c2.189,-0 4.156,0.236 5.901,0.71c1.746,0.473 3.387,1.183 4.925,2.129l0,-19.699l14.287,-0l-0,59.808l-12.334,0l-0.799,-3.549c-1.716,1.479 -3.638,2.588 -5.768,3.327c-2.13,0.74 -4.614,1.11 -7.454,1.11Zm4.082,-10.383c3.135,0 5.798,-1.064 7.986,-3.194l0,-17.038c-2.011,-1.833 -4.584,-2.75 -7.72,-2.75c-3.017,-0 -5.309,1.138 -6.877,3.416c-1.567,2.278 -2.351,5.487 -2.351,9.628c-0,4.023 0.754,6.685 2.262,7.986c1.509,1.302 3.742,1.952 6.7,1.952Z" style="fill:url(#_Linear10);fill-rule:nonzero;"/><path d="M442.526,44.934l-0,-10.737l15.529,-0l-0,10.737l-15.529,-0Zm1.153,48.716l0,-31.501l-6.211,-0l1.242,-10.56l19.256,0l-0,42.061l-14.287,0Z" style="fill:url(#_Linear11);fill-rule:nonzero;"/><path d="M485.208,109.268c-2.071,-0 -4.259,-0.089 -6.567,-0.266c-2.307,-0.178 -4.495,-0.444 -6.566,-0.799c-2.071,-0.355 -3.845,-0.769 -5.324,-1.242l-0,-9.761c2.366,0.769 5.206,1.36 8.519,1.774c3.312,0.415 6.359,0.622 9.139,0.622c3.609,-0 6.315,-0.193 8.12,-0.577c1.804,-0.385 2.706,-1.05 2.706,-1.997c0,-0.828 -0.355,-1.39 -1.065,-1.686c-0.709,-0.296 -2.1,-0.443 -4.17,-0.443l-11.625,-0c-3.786,-0 -6.729,-0.681 -8.829,-2.041c-2.1,-1.361 -3.15,-3.343 -3.15,-5.946c-0,-1.774 0.547,-3.46 1.641,-5.058c1.095,-1.597 2.707,-2.78 4.837,-3.549c-2.426,-1.242 -4.26,-2.81 -5.502,-4.703c-1.242,-1.893 -1.864,-4.289 -1.864,-7.188c0,-5.442 1.76,-9.421 5.28,-11.935c3.52,-2.514 8.682,-3.771 15.485,-3.771c1.42,-0 3.002,0.103 4.747,0.31c1.745,0.207 3.032,0.4 3.86,0.577l16.15,0l-0.355,8.874l-6.122,-0c1.479,1.479 2.218,3.668 2.218,6.566c0,4.082 -1.316,7.365 -3.949,9.85c-2.632,2.485 -6.611,3.727 -11.935,3.727c-0.887,-0 -1.76,-0.044 -2.618,-0.133c-0.857,-0.089 -1.7,-0.163 -2.529,-0.222c-1.538,0.178 -2.854,0.503 -3.948,0.976c-1.095,0.473 -1.642,1.154 -1.642,2.041c0,0.71 0.281,1.183 0.843,1.42c0.562,0.237 1.405,0.355 2.529,0.355l10.737,-0c4.319,-0 7.676,0.991 10.072,2.973c2.396,1.981 3.594,4.865 3.594,8.651c-0,8.401 -7.573,12.601 -22.717,12.601Zm1.154,-36.56c3.135,0 5.294,-0.532 6.477,-1.597c1.184,-1.065 1.775,-2.839 1.775,-5.324c0,-2.485 -0.606,-4.289 -1.819,-5.413c-1.213,-1.124 -3.357,-1.686 -6.433,-1.686c-2.899,0 -4.984,0.547 -6.256,1.642c-1.272,1.094 -1.908,2.913 -1.908,5.457c-0,2.366 0.591,4.111 1.775,5.235c1.183,1.124 3.312,1.686 6.389,1.686Z" style="fill:url(#_Linear12);fill-rule:nonzero;"/><path d="M538.982,94.538c-8.104,-0 -14.079,-1.879 -17.924,-5.635c-3.846,-3.757 -5.768,-9.184 -5.768,-16.283c-0,-7.04 1.937,-12.453 5.812,-16.239c3.875,-3.786 9.835,-5.679 17.88,-5.679c8.105,-0 14.095,1.893 17.97,5.679c3.874,3.786 5.812,9.199 5.812,16.239c-0,7.099 -1.923,12.526 -5.768,16.283c-3.845,3.756 -9.85,5.635 -18.014,5.635Zm0,-11.181c3.313,-0 5.68,-0.828 7.099,-2.485c1.42,-1.656 2.13,-4.407 2.13,-8.252c0,-3.846 -0.71,-6.596 -2.13,-8.253c-1.419,-1.656 -3.786,-2.484 -7.099,-2.484c-3.253,-0 -5.59,0.828 -7.01,2.484c-1.42,1.657 -2.129,4.407 -2.129,8.253c-0,3.845 0.709,6.596 2.129,8.252c1.42,1.657 3.757,2.485 7.01,2.485Z" style="fill:url(#_Linear13);fill-rule:nonzero;"/></g><defs><linearGradient id="_Linear1" x1="0" y1="0" x2="1" y2="0" gradientUnits="userSpaceOnUse" gradientTransform="matrix(-143.11,143.11,-143.11,-143.11,143.11,-5.68434e-14)"><stop offset="0" style="stop-color:#00c509;stop-opacity:1"/><stop offset="1" style="stop-color:#76b900;stop-opacity:1"/></linearGradient><linearGradient id="_Linear2" x1="0" y1="0" x2="1" y2="0" gradientUnits="userSpaceOnUse" gradientTransform="matrix(-143.11,143.11,-143.11,-143.11,143.11,-5.68434e-14)"><stop offset="0" style="stop-color:#00c509;stop-opacity:1"/><stop offset="1" style="stop-color:#76b900;stop-opacity:1"/></linearGradient><linearGradient id="_Linear3" x1="0" y1="0" x2="1" y2="0" gradientUnits="userSpaceOnUse" gradientTransform="matrix(-143.11,143.11,-143.11,-143.11,143.11,-2.13163e-13)"><stop offset="0" style="stop-color:#00c509;stop-opacity:1"/><stop offset="1" style="stop-color:#76b900;stop-opacity:1"/></linearGradient><linearGradient id="_Linear4" x1="0" y1="0" x2="1" y2="0" gradientUnits="userSpaceOnUse" gradientTransform="matrix(-143.11,143.11,-143.11,-143.11,143.11,-2.13163e-13)"><stop offset="0" style="stop-color:#00c509;stop-opacity:1"/><stop offset="1" style="stop-color:#76b900;stop-opacity:1"/></linearGradient><linearGradient id="_Linear5" x1="0" y1="0" x2="1" y2="0" gradientUnits="userSpaceOnUse" gradientTransform="matrix(-390.086,49.9859,-49.9859,-390.086,562.764,41.2685)"><stop offset="0" style="stop-color:#76b900;stop-opacity:1"/><stop offset="1" style="stop-color:#00c509;stop-opacity:1"/></linearGradient><linearGradient id="_Linear6" x1="0" y1="0" x2="1" y2="0" gradientUnits="userSpaceOnUse" gradientTransform="matrix(-390.086,49.9859,-49.9859,-390.086,562.764,41.2685)"><stop offset="0" style="stop-color:#76b900;stop-opacity:1"/><stop offset="1" style="stop-color:#00c509;stop-opacity:1"/></linearGradient><linearGradient id="_Linear7" x1="0" y1="0" x2="1" y2="0" gradientUnits="userSpaceOnUse" gradientTransform="matrix(-390.086,49.9859,-49.9859,-390.086,562.764,41.2685)"><stop offset="0" style="stop-color:#76b900;stop-opacity:1"/><stop offset="1" style="stop-color:#00c509;stop-opacity:1"/></linearGradient><linearGradient id="_Linear8" x1="0" y1="0" x2="1" y2="0" gradientUnits="userSpaceOnUse" gradientTransform="matrix(-390.086,49.9859,-49.9859,-390.086,562.764,41.2685)"><stop offset="0" style="stop-color:#76b900;stop-opacity:1"/><stop offset="1" style="stop-color:#00c509;stop-opacity:1"/></linearGradient><linearGradient id="_Linear9" x1="0" y1="0" x2="1" y2="0" gradientUnits="userSpaceOnUse" gradientTransform="matrix(-390.086,49.9859,-49.9859,-390.086,562.764,41.2685)"><stop offset="0" style="stop-color:#76b900;stop-opacity:1"/><stop offset="1" style="stop-color:#00c509;stop-opacity:1"/></linearGradient><linearGradient id="_Linear10" x1="0" y1="0" x2="1" y2="0" gradientUnits="userSpaceOnUse" gradientTransform="matrix(-390.086,49.9859,-49.9859,-390.086,562.764,41.2685)"><stop offset="0" style="stop-color:#76b900;stop-opacity:1"/><stop offset="1" style="stop-color:#00c509;stop-opacity:1"/></linearGradient><linearGradient id="_Linear11" x1="0" y1="0" x2="1" y2="0" gradientUnits="userSpaceOnUse" gradientTransform="matrix(-390.086,49.9859,-49.9859,-390.086,562.764,41.2685)"><stop offset="0" style="stop-color:#76b900;stop-opacity:1"/><stop offset="1" style="stop-color:#00c509;stop-opacity:1"/></linearGradient><linearGradient id="_Linear12" x1="0" y1="0" x2="1" y2="0" gradientUnits="userSpaceOnUse" gradientTransform="matrix(-390.086,49.9859,-49.9859,-390.086,562.764,41.2685)"><stop offset="0" style="stop-color:#76b900;stop-opacity:1"/><stop offset="1" style="stop-color:#00c509;stop-opacity:1"/></linearGradient><linearGradient id="_Linear13" x1="0" y1="0" x2="1" y2="0" gradientUnits="userSpaceOnUse" gradientTransform="matrix(-390.086,49.9859,-49.9859,-390.086,562.764,41.2685)"><stop offset="0" style="stop-color:#76b900;stop-opacity:1"/><stop offset="1" style="stop-color:#00c509;stop-opacity:1"/></linearGradient></defs></svg>